REM DIRINDEX 1\2\4\18,1\2\4\19,1\2\5\20,1\2\5\21,1\2\6\22,1\2\6\23,1\2\7\24,1\2\8\25,1\2\9\26,1\2\10\27,1\2\10\28,1\3\11\29,1\3\11\30,1\3\11\31,1\3\11\32,1\3\12\33,1\3\12\34,1\3\12\35,1\3\12\36,1\3\13\37,1\3\13\38,1\3\13\39,1\3\13\40,1\3\14\41,1\3\14\42,1\3\15\43,1\3\15\44,1\3\16\45,1\3\16\46,1\3\17\47,1\3\17\48,1\3\17\49,1\3\17\50
REM DIRNAME folder01,folder02,folder03,folder04,folder05,folder06,folder07,folder08,folder09,folder10,folder11,folder12,folder13,folder14,folder15,folder16,folder17,folder18,folder19,folder20,folder21,folder22,folder23,folder24,folder25,folder26,folder27,folder28,folder29,folder30,folder31,folder32,folder33,folder34,folder35,folder36,folder37,folder38,folder39,folder40,folder41,folder42,folder43,folder44,folder45,folder46,folder47,folder48,folder49,folder50
TITLE ""
FILE "11.mp3" MP3
  TRACK 01 AUDIO
    TITLE "0:"
    INDEX 01 00:00:00
  TRACK 02 AUDIO
    TITLE "44:cjc135_5760"
    INDEX 01 00:00:15
  TRACK 03 AUDIO
    TITLE "0:"
    INDEX 01 00:02:04
  TRACK 04 AUDIO
    TITLE "43:cjc135_5761"
    INDEX 01 00:02:38
  TRACK 05 AUDIO
    TITLE "0:"
    INDEX 01 00:03:57
  TRACK 06 AUDIO
    TITLE "43:cjc135_5762"
    INDEX 01 00:04:19
  TRACK 07 AUDIO
    TITLE "0:"
    INDEX 01 00:05:44
  TRACK 08 AUDIO
    TITLE "44:cjc135_5763"
    INDEX 01 00:06:31
  TRACK 09 AUDIO
    TITLE "0:"
    INDEX 01 00:08:40
  TRACK 10 AUDIO
    TITLE "43:cjc135_5764"
    INDEX 01 00:09:00
  TRACK 11 AUDIO
    TITLE "0:"
    INDEX 01 00:10:16
  TRACK 12 AUDIO
    TITLE "43:cjc135_5765"
    INDEX 01 00:10:57
  TRACK 13 AUDIO
    TITLE "0:"
    INDEX 01 00:12:16
  TRACK 14 AUDIO
    TITLE "44:cjc135_5766"
    INDEX 01 00:13:04
  TRACK 15 AUDIO
    TITLE "0:"
    INDEX 01 00:14:56
  TRACK 16 AUDIO
    TITLE "43:cjc135_5767"
    INDEX 01 00:15:05
  TRACK 17 AUDIO
    TITLE "0:"
    INDEX 01 00:16:48
  TRACK 18 AUDIO
    TITLE "44:cjc135_5768"
    INDEX 01 00:17:35
  TRACK 19 AUDIO
    TITLE "0:"
    INDEX 01 00:19:28
  TRACK 20 AUDIO
    TITLE "43:cjc135_5769"
    INDEX 01 00:19:54
  TRACK 21 AUDIO
    TITLE "0:"
    INDEX 01 00:21:23
  TRACK 22 AUDIO
    TITLE "43:cjc135_5770"
    INDEX 01 00:21:62
  TRACK 23 AUDIO
    TITLE "0:"
    INDEX 01 00:23:12
  TRACK 24 AUDIO
    TITLE "44:cjc135_5771"
    INDEX 01 00:24:00
  TRACK 25 AUDIO
    TITLE "0:"
    INDEX 01 00:25:66
  TRACK 26 AUDIO
    TITLE "43:cjc135_5772"
    INDEX 01 00:26:15
  TRACK 27 AUDIO
    TITLE "0:"
    INDEX 01 00:27:53
  TRACK 28 AUDIO
    TITLE "44:cjc135_5773"
    INDEX 01 00:28:39
  TRACK 29 AUDIO
    TITLE "0:"
    INDEX 01 00:30:61
  TRACK 30 AUDIO
    TITLE "43:cjc135_5774"
    INDEX 01 00:31:10
  TRACK 31 AUDIO
    TITLE "0:"
    INDEX 01 00:32:52
  TRACK 32 AUDIO
    TITLE "44:cjc135_5775"
    INDEX 01 00:33:40
  TRACK 33 AUDIO
    TITLE "0:"
    INDEX 01 00:35:31
  TRACK 34 AUDIO
    TITLE "43:cjc135_5776"
    INDEX 01 00:35:57
  TRACK 35 AUDIO
    TITLE "0:"
    INDEX 01 00:37:12
  TRACK 36 AUDIO
    TITLE "44:cjc135_5777"
    INDEX 01 00:38:00
  TRACK 37 AUDIO
    TITLE "0:"
    INDEX 01 00:39:54
  TRACK 38 AUDIO
    TITLE "43:cjc135_5778"
    INDEX 01 00:40:05
  TRACK 39 AUDIO
    TITLE "0:"
    INDEX 01 00:41:18
  TRACK 40 AUDIO
    TITLE "44:cjc135_5779"
    INDEX 01 00:42:04
  TRACK 41 AUDIO
    TITLE "0:"
    INDEX 01 00:46:33
  TRACK 42 AUDIO
    TITLE "43:cjc135_5780"
    INDEX 01 00:46:56
  TRACK 43 AUDIO
    TITLE "0:"
    INDEX 01 00:47:68
  TRACK 44 AUDIO
    TITLE "44:cjc135_5781"
    INDEX 01 00:48:55
  TRACK 45 AUDIO
    TITLE "0:"
    INDEX 01 00:50:29
  TRACK 46 AUDIO
    TITLE "43:cjc135_5782"
    INDEX 01 00:50:52
  TRACK 47 AUDIO
    TITLE "0:"
    INDEX 01 00:51:67
  TRACK 48 AUDIO
    TITLE "44:cjc135_5783"
    INDEX 01 00:52:57
  TRACK 49 AUDIO
    TITLE "0:"
    INDEX 01 00:54:40
  TRACK 50 AUDIO
    TITLE "43:cjc135_5784"
    INDEX 01 00:54:64
  TRACK 51 AUDIO
    TITLE "0:"
    INDEX 01 00:55:69
  TRACK 52 AUDIO
    TITLE "44:cjc135_5785"
    INDEX 01 00:56:57
  TRACK 53 AUDIO
    TITLE "0:"
    INDEX 01 01:01:05
  TRACK 54 AUDIO
    TITLE "43:cjc135_5786"
    INDEX 01 01:01:31
  TRACK 55 AUDIO
    TITLE "0:"
    INDEX 01 01:02:40
  TRACK 56 AUDIO
    TITLE "44:cjc135_5787"
    INDEX 01 01:03:26
  TRACK 57 AUDIO
    TITLE "0:"
    INDEX 01 01:04:68
  TRACK 58 AUDIO
    TITLE "43:cjc135_5788"
    INDEX 01 01:05:17
  TRACK 59 AUDIO
    TITLE "0:"
    INDEX 01 01:06:32
  TRACK 60 AUDIO
    TITLE "44:cjc135_5789"
    INDEX 01 01:07:21
  TRACK 61 AUDIO
    TITLE "0:"
    INDEX 01 01:12:19
  TRACK 62 AUDIO
    TITLE "43:cjc135_5790"
    INDEX 01 01:12:50
  TRACK 63 AUDIO
    TITLE "0:"
    INDEX 01 01:13:44
  TRACK 64 AUDIO
    TITLE "44:cjc135_5791"
    INDEX 01 01:14:29
  TRACK 65 AUDIO
    TITLE "0:"
    INDEX 01 01:16:60
  TRACK 66 AUDIO
    TITLE "43:cjc135_5792"
    INDEX 01 01:17:12
  TRACK 67 AUDIO
    TITLE "0:"
    INDEX 01 01:18:21
  TRACK 68 AUDIO
    TITLE "44:cjc135_5793"
    INDEX 01 01:19:09
  TRACK 69 AUDIO
    TITLE "0:"
    INDEX 01 01:23:28
  TRACK 70 AUDIO
    TITLE "43:cjc135_5794"
    INDEX 01 01:23:54
  TRACK 71 AUDIO
    TITLE "0:"
    INDEX 01 01:24:53
  TRACK 72 AUDIO
    TITLE "44:cjc135_5795"
    INDEX 01 01:25:39
  TRACK 73 AUDIO
    TITLE "0:"
    INDEX 01 01:27:50
  TRACK 74 AUDIO
    TITLE "43:cjc135_5796"
    INDEX 01 01:27:73
  TRACK 75 AUDIO
    TITLE "0:"
    INDEX 01 01:29:27
  TRACK 76 AUDIO
    TITLE "44:cjc135_5797"
    INDEX 01 01:30:15
  TRACK 77 AUDIO
    TITLE "0:"
    INDEX 01 01:32:21
  TRACK 78 AUDIO
    TITLE "43:cjc135_5798"
    INDEX 01 01:32:45
  TRACK 79 AUDIO
    TITLE "0:"
    INDEX 01 01:33:52
  TRACK 80 AUDIO
    TITLE "44:cjc135_5799"
    INDEX 01 01:34:38
  TRACK 81 AUDIO
    TITLE "0:"
    INDEX 01 01:36:41
  TRACK 82 AUDIO
    TITLE "43:cjc135_5800"
    INDEX 01 01:36:66
  TRACK 83 AUDIO
    TITLE "0:"
    INDEX 01 01:38:04
  TRACK 84 AUDIO
    TITLE "44:cjc135_5801"
    INDEX 01 01:38:67
  TRACK 85 AUDIO
    TITLE "0:"
    INDEX 01 01:41:18
  TRACK 86 AUDIO
    TITLE "43:cjc135_5802"
    INDEX 01 01:41:42
  TRACK 87 AUDIO
    TITLE "0:"
    INDEX 01 01:42:55
  TRACK 88 AUDIO
    TITLE "44:cjc135_5803"
    INDEX 01 01:43:43
  TRACK 89 AUDIO
    TITLE "0:"
    INDEX 01 01:45:34
  TRACK 90 AUDIO
    TITLE "43:cjc135_5804"
    INDEX 01 01:45:57
  TRACK 91 AUDIO
    TITLE "0:"
    INDEX 01 01:47:01
  TRACK 92 AUDIO
    TITLE "43:cjc135_5805"
    INDEX 01 01:47:37
  TRACK 93 AUDIO
    TITLE "0:"
    INDEX 01 01:48:58
  TRACK 94 AUDIO
    TITLE "44:cjc135_5806"
    INDEX 01 01:49:45
  TRACK 95 AUDIO
    TITLE "0:"
    INDEX 01 01:51:60
  TRACK 96 AUDIO
    TITLE "43:cjc135_5807"
    INDEX 01 01:52:10
  TRACK 97 AUDIO
    TITLE "0:"
    INDEX 01 01:53:21
  TRACK 98 AUDIO
    TITLE "43:cjc135_5808"
    INDEX 01 01:53:61
  TRACK 99 AUDIO
    TITLE "0:"
    INDEX 01 01:54:74
  TRACK 100 AUDIO
    TITLE "43:cjc135_5809"
    INDEX 01 01:55:34
  TRACK 101 AUDIO
    TITLE "0:"
    INDEX 01 01:56:55
  TRACK 102 AUDIO
    TITLE "44:cjc135_5810"
    INDEX 01 01:57:39
  TRACK 103 AUDIO
    TITLE "0:"
    INDEX 01 01:59:42
  TRACK 104 AUDIO
    TITLE "43:cjc135_5811"
    INDEX 01 01:59:69
  TRACK 105 AUDIO
    TITLE "0:"
    INDEX 01 02:01:07
  TRACK 106 AUDIO
    TITLE "44:cjc135_5812"
    INDEX 01 02:01:70
  TRACK 107 AUDIO
    TITLE "0:"
    INDEX 01 02:04:60
  TRACK 108 AUDIO
    TITLE "43:cjc135_5813"
    INDEX 01 02:05:13
  TRACK 109 AUDIO
    TITLE "0:"
    INDEX 01 02:06:36
  TRACK 110 AUDIO
    TITLE "44:cjc135_5814"
    INDEX 01 02:07:22
  TRACK 111 AUDIO
    TITLE "0:"
    INDEX 01 02:09:19
  TRACK 112 AUDIO
    TITLE "43:cjc135_5815"
    INDEX 01 02:09:42
  TRACK 113 AUDIO
    TITLE "0:"
    INDEX 01 02:10:67
  TRACK 114 AUDIO
    TITLE "44:cjc135_5816"
    INDEX 01 02:11:53
  TRACK 115 AUDIO
    TITLE "0:"
    INDEX 01 02:14:06
  TRACK 116 AUDIO
    TITLE "43:cjc135_5817"
    INDEX 01 02:14:31
  TRACK 117 AUDIO
    TITLE "0:"
    INDEX 01 02:15:52
  TRACK 118 AUDIO
    TITLE "44:cjc135_5818"
    INDEX 01 02:16:40
  TRACK 119 AUDIO
    TITLE "0:"
    INDEX 01 02:18:55
  TRACK 120 AUDIO
    TITLE "43:cjc135_5819"
    INDEX 01 02:19:09
  TRACK 121 AUDIO
    TITLE "0:"
    INDEX 01 02:20:20
  TRACK 122 AUDIO
    TITLE "44:cjc135_5820"
    INDEX 01 02:21:08
  TRACK 123 AUDIO
    TITLE "0:"
    INDEX 01 02:22:72
  TRACK 124 AUDIO
    TITLE "43:cjc135_5821"
    INDEX 01 02:23:23
  TRACK 125 AUDIO
    TITLE "0:"
    INDEX 01 02:24:57
  TRACK 126 AUDIO
    TITLE "44:cjc135_5822"
    INDEX 01 02:25:45
  TRACK 127 AUDIO
    TITLE "0:"
    INDEX 01 02:31:51
  TRACK 128 AUDIO
    TITLE "43:cjc135_5823"
    INDEX 01 02:32:02
  TRACK 129 AUDIO
    TITLE "0:"
    INDEX 01 02:33:13
  TRACK 130 AUDIO
    TITLE "44:cjc135_5824"
    INDEX 01 02:33:74
  TRACK 131 AUDIO
    TITLE "0:"
    INDEX 01 02:38:48
  TRACK 132 AUDIO
    TITLE "43:cjc135_5825"
    INDEX 01 02:39:00
  TRACK 133 AUDIO
    TITLE "0:"
    INDEX 01 02:40:17
  TRACK 134 AUDIO
    TITLE "44:cjc135_5826"
    INDEX 01 02:41:05
  TRACK 135 AUDIO
    TITLE "0:"
    INDEX 01 02:45:16
  TRACK 136 AUDIO
    TITLE "43:cjc135_5827"
    INDEX 01 02:45:40
  TRACK 137 AUDIO
    TITLE "0:"
    INDEX 01 02:46:55
  TRACK 138 AUDIO
    TITLE "44:cjc135_5828"
    INDEX 01 02:47:43
  TRACK 139 AUDIO
    TITLE "0:"
    INDEX 01 02:51:48
  TRACK 140 AUDIO
    TITLE "43:cjc135_5829"
    INDEX 01 02:51:72
  TRACK 141 AUDIO
    TITLE "0:"
    INDEX 01 02:53:08
  TRACK 142 AUDIO
    TITLE "44:cjc135_5830"
    INDEX 01 02:53:71
  TRACK 143 AUDIO
    TITLE "0:"
    INDEX 01 02:55:23
  TRACK 144 AUDIO
    TITLE "43:cjc135_5831"
    INDEX 01 02:55:48
  TRACK 145 AUDIO
    TITLE "0:"
    INDEX 01 02:56:67
  TRACK 146 AUDIO
    TITLE "44:cjc135_5832"
    INDEX 01 02:57:55
  TRACK 147 AUDIO
    TITLE "0:"
    INDEX 01 02:59:16
  TRACK 148 AUDIO
    TITLE "43:cjc135_5833"
    INDEX 01 02:59:42
  TRACK 149 AUDIO
    TITLE "0:"
    INDEX 01 03:00:47
  TRACK 150 AUDIO
    TITLE "44:cjc135_5834"
    INDEX 01 03:01:35
  TRACK 151 AUDIO
    TITLE "0:"
    INDEX 01 03:03:32
  TRACK 152 AUDIO
    TITLE "43:cjc135_5835"
    INDEX 01 03:03:57
  TRACK 153 AUDIO
    TITLE "0:"
    INDEX 01 03:05:07
  TRACK 154 AUDIO
    TITLE "44:cjc135_5836"
    INDEX 01 03:05:68
  TRACK 155 AUDIO
    TITLE "0:"
    INDEX 01 03:07:12
  TRACK 156 AUDIO
    TITLE "43:cjc135_5837"
    INDEX 01 03:07:38
  TRACK 157 AUDIO
    TITLE "0:"
    INDEX 01 03:08:57
  TRACK 158 AUDIO
    TITLE "44:cjc135_5838"
    INDEX 01 03:09:44
  TRACK 159 AUDIO
    TITLE "0:"
    INDEX 01 03:10:50
  TRACK 160 AUDIO
    TITLE "43:cjc135_5839"
    INDEX 01 03:11:02
  TRACK 161 AUDIO
    TITLE "0:"
    INDEX 01 03:12:19
  TRACK 162 AUDIO
    TITLE "44:cjc135_5840"
    INDEX 01 03:13:17
  TRACK 163 AUDIO
    TITLE "0:"
    INDEX 01 03:14:53
  TRACK 164 AUDIO
    TITLE "43:cjc135_5841"
    INDEX 01 03:15:02
  TRACK 165 AUDIO
    TITLE "0:"
    INDEX 01 03:16:29
  TRACK 166 AUDIO
    TITLE "44:cjc135_5842"
    INDEX 01 03:17:16
  TRACK 167 AUDIO
    TITLE "0:"
    INDEX 01 03:18:47
  TRACK 168 AUDIO
    TITLE "43:cjc135_5843"
    INDEX 01 03:18:73
  TRACK 169 AUDIO
    TITLE "0:"
    INDEX 01 03:20:13
  TRACK 170 AUDIO
    TITLE "44:cjc135_5844"
    INDEX 01 03:21:00
  TRACK 171 AUDIO
    TITLE "0:"
    INDEX 01 03:24:30
  TRACK 172 AUDIO
    TITLE "43:cjc135_5845"
    INDEX 01 03:24:54
  TRACK 173 AUDIO
    TITLE "0:"
    INDEX 01 03:25:73
  TRACK 174 AUDIO
    TITLE "44:cjc135_5846"
    INDEX 01 03:26:60
  TRACK 175 AUDIO
    TITLE "0:"
    INDEX 01 03:27:72
  TRACK 176 AUDIO
    TITLE "43:cjc135_5847"
    INDEX 01 03:28:22
  TRACK 177 AUDIO
    TITLE "0:"
    INDEX 01 03:29:37
